HIERARCHY
ROOT hip
{
  OFFSET 0 0 0
  CHANNELS 6 Xposition Yposition Zposition Zrotation Yrotation Xrotation
  JOINT abdomen
  {
    OFFSET 0 20.6881 -0.73152
    CHANNELS 3 Zrotation Xrotation Yrotation
    JOINT chest
    {
      OFFSET 0 11.7043 -0.48768
      CHANNELS 3 Zrotation Xrotation Yrotation
      JOINT neck
      {
        OFFSET 0 22.1894 -2.19456
        CHANNELS 3 Zrotation Xrotation Yrotation
        JOINT head
        {
          OFFSET -0.24384 7.07133 1.2192
          CHANNELS 3 Zrotation Xrotation Yrotation
          JOINT leftEye
          {
            OFFSET 4.14528 8.04674 8.04672
            CHANNELS 3 Zrotation Xrotation Yrotation
            End Site
            {
              OFFSET 1 0 0
            }
          }
          JOINT rightEye
          {
            OFFSET -3.6576 8.04674 8.04672
            CHANNELS 3 Zrotation Xrotation Yrotation
            End Site
            {
              OFFSET 1 0 0
            }
          }
        }
      }
      JOINT rCollar
      {
        OFFSET -2.68224 19.2634 -4.8768
        CHANNELS 3 Zrotation Xrotation Yrotation
        JOINT rShldr
        {
          OFFSET -8.77824 -1.95073 1.46304
          CHANNELS 3 Zrotation Xrotation Yrotation
          JOINT rForeArm
          {
            OFFSET -28.1742 -1.7115 0.48768
            CHANNELS 3 Zrotation Xrotation Yrotation
            JOINT rHand
            {
              OFFSET -22.5879 0.773209 7.07136
              CHANNELS 3 Zrotation Xrotation Yrotation
              JOINT rThumb1
              {
                OFFSET -1.2192 -0.487915 3.41376
                CHANNELS 3 Zrotation Xrotation Yrotation
                JOINT rThumb2
                {
                  OFFSET -3.37035 -0.52449 3.41376
                  CHANNELS 3 Zrotation Xrotation Yrotation
                  End Site
                  {
                    OFFSET -1.78271 -1.18214 1.43049
                  }
                }
              }
              JOINT rIndex1
              {
                OFFSET -7.75947 0.938293 5.60832
                CHANNELS 3 Zrotation Xrotation Yrotation
                JOINT rIndex2
                {
                  OFFSET -2.54057 -0.884171 1.56538
                  CHANNELS 3 Zrotation Xrotation Yrotation
                  End Site
                  {
                    OFFSET -1.62519 -0.234802 1.16502
                  }
                }
              }
              JOINT rMid1
              {
                OFFSET -8.24714 1.18213 3.41376
                CHANNELS 3 Zrotation Xrotation Yrotation
                JOINT rMid2
                {
                  OFFSET -3.10165 -0.590103 1.0647
                  CHANNELS 3 Zrotation Xrotation Yrotation
                  End Site
                  {
                    OFFSET -2.48547 -0.328903 0.83742
                  }
                }
              }
              JOINT rRing1
              {
                OFFSET -8.82822 0.546677 1.51678
                CHANNELS 3 Zrotation Xrotation Yrotation
                JOINT rRing2
                {
                  OFFSET -2.60934 -0.819778 -0.0198488
                  CHANNELS 3 Zrotation Xrotation Yrotation
                  End Site
                  {
                    OFFSET -2.33842 -0.294052 0.168128
                  }
                }
              }
              JOINT rPinky1
              {
                OFFSET -8.27202 -0.0477905 -0.4584
                CHANNELS 3 Zrotation Xrotation Yrotation
                JOINT rPinky2
                {
                  OFFSET -1.82734 -0.647385 -0.700984
                  CHANNELS 3 Zrotation Xrotation Yrotation
                  End Site
                  {
                    OFFSET -1.69225 -0.51767 -0.607171
                  }
                }
              }
            }
          }
        }
      }
      JOINT lCollar
      {
        OFFSET 2.68224 19.2634 -4.8768
        CHANNELS 3 Zrotation Xrotation Yrotation
        JOINT lShldr
        {
          OFFSET 8.77824 -1.95073 1.46304
          CHANNELS 3 Zrotation Xrotation Yrotation
          JOINT lForeArm
          {
            OFFSET 28.1742 -1.7115 0.48768
            CHANNELS 3 Zrotation Xrotation Yrotation
            JOINT lHand
            {
              OFFSET 22.5879 0.773209 7.07136
              CHANNELS 3 Zrotation Xrotation Yrotation
              JOINT lThumb1
              {
                OFFSET 1.2192 -0.487915 3.41376
                CHANNELS 3 Zrotation Xrotation Yrotation
                JOINT lThumb2
                {
                  OFFSET 3.37035 -0.52449 3.41376
                  CHANNELS 3 Zrotation Xrotation Yrotation
                  End Site
                  {
                    OFFSET 1.78271 -1.18214 1.43049
                  }
                }
              }
              JOINT lIndex1
              {
                OFFSET 7.75947 0.938293 5.60832
                CHANNELS 3 Zrotation Xrotation Yrotation
                JOINT lIndex2
                {
                  OFFSET 2.54057 -0.884171 1.56538
                  CHANNELS 3 Zrotation Xrotation Yrotation
                  End Site
                  {
                    OFFSET 1.62519 -0.234802 1.16502
                  }
                }
              }
              JOINT lMid1
              {
                OFFSET 8.24714 1.18213 3.41376
                CHANNELS 3 Zrotation Xrotation Yrotation
                JOINT lMid2
                {
                  OFFSET 3.10165 -0.590103 1.0647
                  CHANNELS 3 Zrotation Xrotation Yrotation
                  End Site
                  {
                    OFFSET 2.48547 -0.328903 0.83742
                  }
                }
              }
              JOINT lRing1
              {
                OFFSET 8.82822 0.546677 1.51678
                CHANNELS 3 Zrotation Xrotation Yrotation
                JOINT lRing2
                {
                  OFFSET 2.60934 -0.819778 -0.0198488
                  CHANNELS 3 Zrotation Xrotation Yrotation
                  End Site
                  {
                    OFFSET 2.33842 -0.294052 0.168128
                  }
                }
              }
              JOINT lPinky1
              {
                OFFSET 8.27202 -0.0477905 -0.4584
                CHANNELS 3 Zrotation Xrotation Yrotation
                JOINT lPinky2
                {
                  OFFSET 1.82734 -0.647385 -0.700984
                  CHANNELS 3 Zrotation Xrotation Yrotation
                  End Site
                  {
                    OFFSET 1.69225 -0.51767 -0.607171
                  }
                }
              }
            }
          }
        }
      }
    }
  }
  JOINT rButtock
  {
    OFFSET -8.77824 4.35084 1.2192
    CHANNELS 3 Zrotation Xrotation Yrotation
    JOINT rThigh
    {
      OFFSET 0 -1.70687 -2.19456
      CHANNELS 3 Zrotation Xrotation Yrotation
      JOINT rShin
      {
        OFFSET 0 -36.8199 0.73152
        CHANNELS 3 Zrotation Xrotation Yrotation
        JOINT rFoot
        {
          OFFSET 0.73152 -45.1104 -5.12064
          CHANNELS 3 Zrotation Xrotation Yrotation
          End Site
          {
            OFFSET -1.1221 -3.69964 12.103
          }
        }
      }
    }
  }
  JOINT lButtock
  {
    OFFSET 8.77824 4.35084 1.2192
    CHANNELS 3 Zrotation Xrotation Yrotation
    JOINT lThigh
    {
      OFFSET 0 -1.70687 -2.19456
      CHANNELS 3 Zrotation Xrotation Yrotation
      JOINT lShin
      {
        OFFSET 0 -36.8199 0.73152
        CHANNELS 3 Zrotation Xrotation Yrotation
        JOINT lFoot
        {
          OFFSET -0.73152 -45.1104 -5.12064
          CHANNELS 3 Zrotation Xrotation Yrotation
          End Site
          {
            OFFSET 1.1221 -3.69964 12.103
          }
        }
      }
    }
  }
}
MOTION
Frames:	4
Frame Time:	0.03333
-0.03414828447752583 46.27877658940555 -0.04927436871959384 -9.247498512268066 -17.50749969482422 7.089099884033203 4.5030598640441895 5.951560020446777 5.493600368499756 1.1776100397109985 -5.94888973236084 1.6167699098587036 -8.02195930480957 18.4364013671875 -12.1781005859375 13.281898498535156 -19.80660057067871 -21.710901260375977 -0.0 0.0 -0.0 -0.0 0.0 -0.0 -1.7811105238255132e-13 -1.2722218027325094e-13 1.081388532322633e-13 72.5147933959961 33.504600524902344 4.417230129241943 -9.98449993133545 -4.1319804191589355 17.772397994995117 -0.14164797961711884 10.667999267578125 1.5170398950576782 2.5113657681208323e-11 -1.027522622543131e-09 1.6747782050074989e-09 5.605409192366295e-11 -1.7836295773676625e-09 2.8930768891655134e-09 2.5113657681208323e-11 -1.027522622543131e-09 1.6747591091714753e-09 7.7309088706970215 5.474880218505859 0.41731396317481995 2.5113657681208323e-11 -1.027522622543131e-09 1.6747718767362585e-09 2.9055399894714355 0.9651829600334167 0.10290198773145676 2.5113657681208323e-11 -1.027522622543131e-09 1.6747718767362585e-09 10.27859878540039 0.73180091381073 0.025912299752235413 2.5113657681208323e-11 -1.027522622543131e-09 1.6747591091714753e-09 2.2216696739196777 -0.7334870100021362 -0.2089199721813202 -1.7811105238255132e-13 -1.2722218027325094e-13 1.081388532322633e-13 -77.61549377441406 19.191600799560547 -0.4682459831237793 10.073099136352539 -4.185919761657715 -17.9385986328125 0.7535579800605774 23.864999771118164 -3.5647597312927246 1.7644443683906275e-09 1.3754498651152858e-09 5.843250883152962e-10 3.0597953060151895e-09 2.3568926810213497e-09 9.72505409535529e-10 1.7644443683906275e-09 1.3754498651152858e-09 5.843378558800794e-10 -7.7309088706970215 5.474880218505859 -0.41731396317481995 1.7644443683906275e-09 1.3754752892225497e-09 5.843314720976878e-10 -2.9055399894714355 0.9651829600334167 -0.10290198773145676 1.7644189442833635e-09 1.3754752892225497e-09 5.843250883152962e-10 -10.27859878540039 0.73180091381073 -0.025912299752235413 1.7644443683906275e-09 1.3754752892225497e-09 5.843250883152962e-10 -2.2216696739196777 -0.7334870100021362 0.2089199721813202 -0.0 0.0 -0.0 6.008460521697998 -13.817399024963379 -0.8837879300117493 -0.31424108147621155 40.33890151977539 0.9210619330406189 -11.801799774169922 -15.963199615478516 -24.954599380493164 -0.0 0.0 -0.0 18.932098388671875 -47.81539535522461 0.508359968662262 0.5311520099639893 45.192195892333984 -0.3445199728012085 1.0279197692871094 -2.5471603870391846 1.5925700664520264
-0.07671904931037694 46.260840512645096 -0.11401859897600418 -9.193899154663086 -17.58449935913086 7.076599597930908 4.371399402618408 5.908949375152588 5.525289535522461 1.2017499208450317 -5.985719680786133 1.6258999109268188 -8.04813003540039 18.40690040588379 -12.163299560546875 13.2662992477417 -19.81220054626465 -21.683900833129883 -0.0 0.0 -0.0 -0.0 0.0 -0.0 -1.2722218027325094e-13 -7.633330816395056e-14 1.1449996224592585e-13 73.04769134521484 32.74859619140625 3.048139810562134 -9.898808479309082 -4.0796098709106445 17.612499237060547 -0.14377199113368988 10.743999481201172 1.5281199216842651 -1.1017440432192771e-11 -5.58047386078897e-10 1.9738521928047703e-09 -1.9846659038424974e-12 -9.718756910359616e-10 3.412811366843016e-09 -1.1017440432192771e-11 -5.58047386078897e-10 1.973826657675204e-09 7.7309088706970215 5.474880218505859 0.41731396317481995 -1.1017440432192771e-11 -5.58047386078897e-10 1.9738393142176847e-09 2.9055399894714355 0.9651829600334167 0.10290198773145676 -1.0991996375608881e-11 -5.58047386078897e-10 1.9738521928047703e-09 10.27859878540039 0.73180091381073 0.025912299752235413 -1.1017440432192771e-11 -5.58047386078897e-10 1.9738521928047703e-09 2.2216696739196777 -0.7334870100021362 -0.2089199721813202 -1.2722218027325094e-13 -7.633330816395056e-14 1.1449996224592585e-13 -77.49039459228516 19.8583984375 -0.5289179682731628 10.281998634338379 -4.314589500427246 -18.331100463867188 0.7021051049232483 23.09650230407715 -3.436030149459839 1.4377378176888556e-09 1.0384383353212456e-09 4.0391134881190283e-10 2.491697292938966e-09 1.775894431510494e-09 6.670067831393567e-10 1.4377378176888556e-09 1.0384637594285095e-09 4.039240608655348e-10 -7.7309088706970215 5.474880218505859 -0.41731396317481995 1.4377378176888556e-09 1.0384637594285095e-09 4.039177048387188e-10 -2.9055399894714355 0.9651829600334167 -0.10290198773145676 1.4377378176888556e-09 1.0384637594285095e-09 4.039177048387188e-10 -10.27859878540039 0.73180091381073 -0.025912299752235413 1.4377378176888556e-09 1.0384637594285095e-09 4.039177048387188e-10 -2.2216696739196777 -0.7334870100021362 0.2089199721813202 -0.0 0.0 -0.0 5.977449417114258 -13.949700355529785 -0.8791629672050476 -0.31662899255752563 40.52379608154297 0.9340707659721375 -12.06089973449707 -16.194398880004883 -25.262800216674805 -0.0 0.0 -0.0 19.18809700012207 -47.820404052734375 0.9197360277175903 0.5310039520263672 45.181396484375 -0.3434719741344452 1.0057599544525146 -2.517019748687744 1.468639850616455
-0.12072220953285352 46.24124469991633 -0.1524067700715617 -9.140399932861328 -17.779600143432617 7.077999114990234 4.240890026092529 5.892899513244629 5.522259712219238 1.2088699340820312 -6.018550395965576 1.6246998310089111 -8.067620277404785 18.345598220825195 -12.144999504089355 13.24589729309082 -19.807998657226562 -21.64859962463379 -0.0 0.0 -0.0 -0.0 0.0 -0.0 -2.5444436054650188e-14 0.0 4.452776309563783e-14 73.51219177246094 32.16729736328125 1.7844398021697998 -9.90404987335205 -4.083189964294434 17.62150001525879 -0.14194098114967346 10.678899765014648 1.5186200141906738 1.437101687651321e-10 -3.887909785782462e-11 1.672640914662793e-09 2.644949259611451e-10 -7.172786670173181e-11 2.8932487516897254e-09 1.437101687651321e-10 -3.887909785782462e-11 1.6726281470980098e-09 7.7309088706970215 5.474880218505859 0.41731396317481995 1.437101687651321e-10 -3.887909785782462e-11 1.6726472429340333e-09 2.9055399894714355 0.9651829600334167 0.10290198773145676 1.4373562062797163e-10 -3.887909785782462e-11 1.6726472429340333e-09 10.27859878540039 0.73180091381073 0.025912299752235413 1.437101687651321e-10 -3.887909785782462e-11 1.6726600104988165e-09 2.2216696739196777 -0.7334870100021362 -0.2089199721813202 -2.5444436054650188e-14 0.0 4.452776309563783e-14 -77.29888916015625 20.670398712158203 -0.6417859196662903 10.516599655151367 -4.461299419403076 -18.77389907836914 0.6502789855003357 22.28110122680664 -3.3012499809265137 9.377546517086444e-10 5.320940354991421e-10 1.64949914838175e-10 1.6225407684089532e-09 9.049822558004905e-10 2.6492746885153906e-10 9.377546517086444e-10 5.320940354991421e-10 1.6496264076959477e-10 -7.7309088706970215 5.474880218505859 -0.41731396317481995 9.377546517086444e-10 5.320940354991421e-10 1.64949914838175e-10 -2.9055399894714355 0.9651829600334167 -0.10290198773145676 9.377546517086444e-10 5.320940354991421e-10 1.649562847427788e-10 -10.27859878540039 0.73180091381073 -0.025912299752235413 9.377546517086444e-10 5.320940354991421e-10 1.649562847427788e-10 -2.2216696739196777 -0.7334870100021362 0.2089199721813202 -0.0 0.0 -0.0 5.962069988250732 -14.047099113464355 -0.8666549324989319 -0.31856995820999146 40.70059585571289 0.949104905128479 -12.37649917602539 -16.45989990234375 -25.648096084594727 -0.0 0.0 -0.0 19.44759750366211 -47.803096771240234 1.345210075378418 0.5302619338035583 45.14849853515625 -0.34178996086120605 0.9688018560409546 -2.461289882659912 1.2394397258758545
-0.17022576311561302 46.22589043466214 -0.19709747821342866 -9.017999649047852 -17.633098602294922 6.959499835968018 4.08305025100708 5.939620018005371 5.391940116882324 1.1860898733139038 -6.017850399017334 1.583950161933899 -8.044018745422363 18.19769859313965 -12.122998237609863 13.240699768066406 -19.79509925842285 -21.596498489379883 -0.0 0.0 -0.0 -0.0 0.0 -0.0 -2.5444436054650188e-14 5.0888872109300376e-14 -7.633330816395056e-14 73.90949249267578 31.54810333251953 0.7138029932975769 -9.941839218139648 -4.105790138244629 17.692699432373047 -0.14001600444316864 10.603799819946289 1.5077099800109863 9.696111691326337e-10 -4.723250679461444e-10 6.237003691289544e-10 1.6805541402931112e-09 -8.170208398716738e-10 1.0714270581857477e-09 9.696111691326337e-10 -4.723250679461444e-10 6.236876570753225e-10 7.7309088706970215 5.474880218505859 0.41731396317481995 9.695856340030673e-10 -4.723250679461444e-10 6.237003691289544e-10 2.9055399894714355 0.9651829600334167 0.10290198773145676 9.696111691326337e-10 -4.723250679461444e-10 6.237003691289544e-10 10.27859878540039 0.73180091381073 0.025912299752235413 9.696111691326337e-10 -4.723250679461444e-10 6.237130811825864e-10 2.2216696739196777 -0.7334870100021362 -0.2089199721813202 -2.5444436054650188e-14 5.0888872109300376e-14 -7.633330816395056e-14 -76.99720001220703 21.633100509643555 -0.860916018486023 10.76300048828125 -4.618249893188477 -19.240400314331055 0.6029539704322815 21.506103515625 -3.1745100021362305 1.2730105858338447e-09 1.1081305872906455e-09 8.474778101508207e-10 2.213716765453455e-09 1.9032184717104883e-09 1.440562225063502e-09 1.2730105858338447e-09 1.1081305872906455e-09 8.474905777156039e-10 -7.7309088706970215 5.474880218505859 -0.41731396317481995 1.2730105858338447e-09 1.1081305872906455e-09 8.474778101508207e-10 -2.9055399894714355 0.9651829600334167 -0.10290198773145676 1.2730105858338447e-09 1.1081305872906455e-09 8.474841939332123e-10 -10.27859878540039 0.73180091381073 -0.025912299752235413 1.2730360099411087e-09 1.1081305872906455e-09 8.474841939332123e-10 -2.2216696739196777 -0.7334870100021362 0.2089199721813202 -0.0 0.0 -0.0 5.92950963973999 -14.019899368286133 -0.9031819105148315 -0.3192429542541504 40.82630157470703 0.9642049670219421 -12.72139835357666 -16.735000610351562 -26.07779884338379 -0.0 0.0 -0.0 19.52020263671875 -47.7516975402832 1.6057099103927612 0.5283688902854919 45.073299407958984 -0.33676302433013916 0.9164898991584778 -2.4108099937438965 0.8979659676551819
